<svg width="645" height="857" viewBox="0 0 645 857" fill="none" xmlns="http://www.w3.org/2000/svg">
<ellipse cx="351.983" cy="319.5" rx="158" ry="136" fill="#E4D7EC"/>
<path d="M247.983 307C285.789 307 316.483 339.432 316.483 379.5C316.483 419.568 285.789 452 247.983 452C210.178 452 179.483 419.568 179.483 379.5C179.483 339.432 210.178 307 247.983 307Z" fill="#E4D7EC" stroke="#E4D7EC"/>
<path d="M242.081 136.094C253.059 166.892 282.343 209.5 282.343 209.5H296.983C296.983 209.5 300.316 156.433 296.983 122.699C293.968 92.1784 282.343 45.5425 282.343 45.5425L275.938 23.5743C275.938 23.5743 271.819 11.4082 265.415 7.50005C257.636 2.75356 250.4 3.7798 242.081 7.50005C234.22 11.0162 226.983 23.5743 226.983 23.5743C226.983 23.5743 226.983 44.8009 226.983 58.4019C226.983 72.0029 231.703 106.98 242.081 136.094Z" fill="#E4D7EC"/>
<path d="M242.081 136.094C253.059 166.892 282.343 209.5 282.343 209.5H296.983C296.983 209.5 300.316 156.433 296.983 122.699C293.968 92.1784 282.343 45.5425 282.343 45.5425L275.938 23.5743C275.938 23.5743 271.819 11.4082 265.415 7.50005C257.636 2.75356 250.4 3.7798 242.081 7.50005C234.22 11.0162 226.983 23.5743 226.983 23.5743C226.983 23.5743 226.983 44.8009 226.983 58.4019C226.983 72.0029 231.703 106.98 242.081 136.094Z" fill="#E4D7EC"/>
<path d="M242.081 136.094C253.059 166.892 282.343 209.5 282.343 209.5H296.983C296.983 209.5 300.316 156.433 296.983 122.699C293.968 92.1784 282.343 45.5425 282.343 45.5425L275.938 23.5743C275.938 23.5743 271.819 11.4082 265.415 7.50005C257.636 2.75356 250.4 3.7798 242.081 7.50005C234.22 11.0162 226.983 23.5743 226.983 23.5743C226.983 23.5743 226.983 44.8009 226.983 58.4019C226.983 72.0029 231.703 106.98 242.081 136.094Z" fill="#E4D7EC"/>
<path d="M242.081 136.094C253.059 166.892 282.343 209.5 282.343 209.5H296.983C296.983 209.5 300.316 156.433 296.983 122.699C293.968 92.1784 282.343 45.5425 282.343 45.5425L275.938 23.5743C275.938 23.5743 271.819 11.4082 265.415 7.50005C257.636 2.75356 250.4 3.7798 242.081 7.50005C234.22 11.0162 226.983 23.5743 226.983 23.5743C226.983 23.5743 226.983 44.8009 226.983 58.4019C226.983 72.0029 231.703 106.98 242.081 136.094Z" fill="#E4D7EC"/>
<path d="M242.081 136.094C253.059 166.892 282.343 209.5 282.343 209.5H296.983C296.983 209.5 300.316 156.433 296.983 122.699C293.968 92.1784 282.343 45.5425 282.343 45.5425L275.938 23.5743C275.938 23.5743 271.819 11.4082 265.415 7.50005C257.636 2.75356 250.4 3.7798 242.081 7.50005C234.22 11.0162 226.983 23.5743 226.983 23.5743C226.983 23.5743 226.983 44.8009 226.983 58.4019C226.983 72.0029 231.703 106.98 242.081 136.094Z" stroke="#E4D7EC"/>
<path d="M242.081 136.094C253.059 166.892 282.343 209.5 282.343 209.5H296.983C296.983 209.5 300.316 156.433 296.983 122.699C293.968 92.1784 282.343 45.5425 282.343 45.5425L275.938 23.5743C275.938 23.5743 271.819 11.4082 265.415 7.50005C257.636 2.75356 250.4 3.7798 242.081 7.50005C234.22 11.0162 226.983 23.5743 226.983 23.5743C226.983 23.5743 226.983 44.8009 226.983 58.4019C226.983 72.0029 231.703 106.98 242.081 136.094Z" stroke="#E4D7EC"/>
<path d="M242.081 136.094C253.059 166.892 282.343 209.5 282.343 209.5H296.983C296.983 209.5 300.316 156.433 296.983 122.699C293.968 92.1784 282.343 45.5425 282.343 45.5425L275.938 23.5743C275.938 23.5743 271.819 11.4082 265.415 7.50005C257.636 2.75356 250.4 3.7798 242.081 7.50005C234.22 11.0162 226.983 23.5743 226.983 23.5743C226.983 23.5743 226.983 44.8009 226.983 58.4019C226.983 72.0029 231.703 106.98 242.081 136.094Z" stroke="#E4D7EC"/>
<path d="M242.081 136.094C253.059 166.892 282.343 209.5 282.343 209.5H296.983C296.983 209.5 300.316 156.433 296.983 122.699C293.968 92.1784 282.343 45.5425 282.343 45.5425L275.938 23.5743C275.938 23.5743 271.819 11.4082 265.415 7.50005C257.636 2.75356 250.4 3.7798 242.081 7.50005C234.22 11.0162 226.983 23.5743 226.983 23.5743C226.983 23.5743 226.983 44.8009 226.983 58.4019C226.983 72.0029 231.703 106.98 242.081 136.094Z" stroke="#E4D7EC"/>
<path d="M445.671 130.259C435.725 163.69 418.35 185.086 404.895 212.5H393.774V121.41C393.774 121.41 389.745 77.1534 393.774 49.0589C395.475 37.2001 395.211 30.2587 399.952 18.8691C402.929 11.7185 409.837 1.17165 409.837 1.17165C409.837 1.17165 420.448 -0.339431 426.725 1.17165C438.006 3.88776 439.921 10.1905 445.671 18.8691C454.114 31.6123 454.127 42.4305 455.968 57.9076C459.335 86.2102 453.924 102.52 445.671 130.259Z" fill="#E4D7EC" stroke="#E4D7EC"/>
<path d="M355.483 429C399.61 429 435.483 469.459 435.483 519.5C435.483 544.501 426.523 563.736 412.071 576.725C397.612 589.72 377.613 596.5 355.483 596.5C333.353 596.5 313.355 589.72 298.895 576.725C284.443 563.736 275.483 544.501 275.483 519.5C275.483 469.459 311.356 429 355.483 429Z" fill="#E4D7EC" stroke="#E4D7EC"/>
<path d="M216.383 467.263C235.144 453.943 274.983 455.562 274.983 455.562V467.263C274.983 467.263 246.66 489.813 223.867 492.322C216.289 493.156 208.399 499.036 204.333 492.322C201.773 488.093 201.279 484.423 202.978 479.695C205.346 473.104 210.527 471.421 216.383 467.263Z" fill="#E4D7EC" stroke="#E4D7EC"/>
<path d="M449.925 457.439L411.983 441.5V454.401L439.968 472.462C439.968 472.462 456.562 489.631 470.75 492.587C478.762 494.256 485.965 498.21 491.738 492.587C497.466 487.008 495.495 482.927 492.834 475.5C486.851 458.809 449.925 457.439 449.925 457.439Z" fill="#E4D7EC" stroke="#E4D7EC"/>
<path d="M284.031 588.151C281.673 573.642 284.031 550.5 284.031 550.5L315.983 580.531V595.771L309.327 612.355C309.327 612.355 305.706 619.793 301.339 620.423C296.192 621.166 294.045 616.366 290.688 612.355C284.417 604.864 285.604 597.832 284.031 588.151Z" fill="#E4D7EC" stroke="#E4D7EC"/>
<path d="M424.983 583.5V551.5L393.983 583.5C393.983 583.5 399.019 607.251 405.483 616C409.093 620.886 408.915 620.789 414.983 620.5C420.782 620.224 424.983 609.5 424.983 609.5V583.5Z" fill="#E4D7EC" stroke="#E4D7EC"/>
<ellipse cx="352.983" cy="377.5" rx="19" ry="8" fill="#DEA3A3"/>
<g filter="url(#filter0_d_30_78)">
<path d="M334.983 482.5L312.483 457.5L354.983 464L393.983 457.5L373.483 482L353.483 504.5L334.983 482.5Z" fill="#FFFCFC"/>
<path d="M334.983 482.5L312.483 457.5L354.983 464M354.983 464L393.983 457.5L373.483 482L353.483 504.5L334.983 482.5M334.983 482.5L344.983 473.25L354.983 464M354.983 464L373.483 482" stroke="#D9D9D9" stroke-width="0.5"/>
</g>
<path d="M353.983 477L348.483 470.5L354.983 463.5L360.983 470.5L355.983 477L362.483 495L353.483 504.5C351.317 501.833 346.983 497.3 346.983 496.5L353.983 477Z" fill="#1E1E1E"/>
<path d="M353.983 477L348.483 470.5L354.983 463.5L360.983 470.5L355.983 477M353.983 477H355.983M353.983 477L346.983 496.5C346.983 497.3 351.317 501.833 353.483 504.5L362.483 495L355.983 477" stroke="#D9D9D9" stroke-width="0.5"/>
<ellipse cx="456.983" cy="380.5" rx="69" ry="73" fill="#E4D7EC"/>
<path d="M248.483 453.5L301.575 445.5L354.495 506.961L409.431 445.5L478.983 461.713L461.847 492.113L430.599 475.9L444.983 556L266.799 559.5L278.895 475.9L236.559 492.113L226.983 461.713L248.483 453.5Z" fill="#1E1E1E" stroke="#1E1E1E"/>
<g filter="url(#filter1_d_30_78)">
<ellipse cx="353.483" cy="401" rx="90.5" ry="62.5" fill="#F7F3FA"/>
<path d="M353.483 339C378.385 339 400.909 345.971 417.192 357.217C433.478 368.464 443.483 383.952 443.483 401C443.483 418.048 433.478 433.536 417.192 444.783C400.909 456.029 378.385 463 353.483 463C328.581 463 306.058 456.029 289.774 444.783C273.489 433.536 263.483 418.048 263.483 401C263.483 383.952 273.489 368.464 289.774 357.217C306.058 345.971 328.581 339 353.483 339Z" stroke="#FFFCFC"/>
</g>
<g filter="url(#filter2_i_30_78)">
<path d="M270.983 165.809L289.483 195.5L295.983 191.389L289.483 162.611L284.483 135.661L281.983 105.512L277.483 78.105L270.983 56.1791L264.983 47.5001H252.983L244.483 53.4383L241.983 67.5988L244.483 86.784L249.483 112.821L258.483 141.599L270.983 165.809Z" fill="#F8C3C3"/>
</g>
<path d="M270.983 165.809L289.483 195.5L295.983 191.389L289.483 162.611L284.483 135.661L281.983 105.512L277.483 78.105L270.983 56.1791L264.983 47.5001H252.983L244.483 53.4383L241.983 67.5988L244.483 86.784L249.483 112.821L258.483 141.599L270.983 165.809Z" stroke="#F7DBDB" stroke-width="0.5"/>
<ellipse cx="355.983" cy="379.5" rx="19" ry="8" fill="#F7DBDB"/>
<path d="M348.371 393.5C347.498 390.5 348.371 385.5 348.371 385.5H362.871C362.871 385.5 363.744 390.5 362.871 393.5C362.113 396.105 361.693 398.098 359.371 399.5C356.864 401.014 354.378 401.014 351.871 399.5C349.549 398.098 349.129 396.105 348.371 393.5Z" fill="#F7DBDB" stroke="#F7DBDB"/>
<g filter="url(#filter3_d_30_78)">
<path d="M249.483 310.5L325.31 312.929C325.31 312.929 325.854 316.145 326.32 320.77H383.092C383.545 316.177 384.246 312.929 384.246 312.929H462.483C462.483 312.929 465.22 345.951 450.483 353C445.802 355.239 437.483 355.753 437.483 355.753H405.836C391.831 352.957 392.775 352.374 387.747 346.706C384.475 343.019 383.173 337.309 382.821 331.627H326.968C327.035 337.003 326.656 342.534 325.31 346.706C323.56 352.134 319.305 354.864 308.388 355.753C297.471 356.643 297.567 357.05 279.983 355.753C262.399 354.457 261.943 354.042 252.954 350.325C238.366 344.293 249.483 310.5 249.483 310.5Z" fill="#1E1E1E"/>
<path d="M383.092 320.77L382.742 326.198M385.996 326.198V320.77H325.31V326.198V331.627H385.996L388.914 322.579M249.483 310.5L325.31 312.929C325.31 312.929 329.057 335.086 325.31 346.706C323.56 352.134 319.305 354.864 308.388 355.753C297.471 356.643 297.567 357.05 279.983 355.753C262.399 354.457 261.943 354.042 252.954 350.325C238.366 344.293 249.483 310.5 249.483 310.5ZM384.246 312.929C384.246 312.929 379.072 336.929 387.747 346.706C392.775 352.374 391.831 352.957 405.836 355.753H437.483C437.483 355.753 445.802 355.239 450.483 353C465.22 345.951 462.483 312.929 462.483 312.929H384.246Z" stroke="#1E1E1E"/>
</g>
<g filter="url(#filter4_i_30_78)">
<path d="M404.983 143L398.983 192.5L410.983 195.5L417.483 177.5L429.983 143L440.983 89.0001V60.5001L436.983 48.0001L423.483 42.5001L410.983 48.0001L404.983 60.5001V93.5001V143Z" fill="#F8C3C3"/>
</g>
<path d="M404.983 143L398.983 192.5L410.983 195.5L417.483 177.5L429.983 143L440.983 89.0001V60.5001L436.983 48.0001L423.483 42.5001L410.983 48.0001L404.983 60.5001V93.5001V143Z" stroke="#D9D9D9" stroke-width="0.5"/>
<path d="M644.483 705C644.483 755.81 354.318 797.5 279.483 797.5C197.483 778.747 237.248 790.014 214.483 778.247C181.97 761.442 160.983 734.885 160.983 705C160.983 677.481 178.779 652.783 206.983 635.924C230.854 621.655 262.18 613 296.483 613C371.318 613 644.483 654.19 644.483 705Z" fill="#F0B256"/>
<path opacity="0.8" d="M408.483 790.5L286.983 797L251.983 782.5L243.983 800.5L264.483 807.5L247.483 836L124.483 849.5L239.483 856.5L298.483 849.5H500.483C500.483 849.5 585.983 838.5 609.483 823C632.983 807.5 536.412 790.5 500.483 790.5H408.483Z" fill="#D9D9D9" fill-opacity="0.8" stroke="#D9D9D9" stroke-width="0.5"/>
<g filter="url(#filter5_d_30_78)">
<path d="M93.9833 653.5L160.983 692L165.483 728.5L93.9833 798.5L108.983 756.5L14.4833 779L67.4833 728.5L4.98331 718.5L52.4833 701L14.4833 659.5L108.983 687.5L93.9833 653.5Z" fill="#9ECB9A"/>
<path d="M93.9833 653.5L160.983 692L165.483 728.5L93.9833 798.5L108.983 756.5L14.4833 779L67.4833 728.5L4.98331 718.5L52.4833 701L14.4833 659.5L108.983 687.5L93.9833 653.5Z" stroke="#A3DE9E" stroke-width="0.5"/>
</g>
<path d="M295.483 675.072C298.569 650.339 312.283 613.5 312.283 613.5L316.483 616.685C316.483 616.685 304.073 652.658 301.55 676.664C299.34 697.695 300.214 709.781 302.483 730.805C305.217 756.126 316.483 794.5 316.483 794.5H309.95C309.95 794.5 298.101 756.178 295.483 730.805C293.25 709.155 292.789 696.67 295.483 675.072Z" fill="#F49300" stroke="#F49300" stroke-width="0.5"/>
<path d="M99.4833 591L206.983 580L279.983 616L200.483 643L174.483 611.5L99.4833 591Z" fill="#F0B256"/>
<path d="M206.983 842L284.483 793.5L200.483 766.5L174.483 809.5L99.4833 835L206.983 842Z" fill="#F0B256"/>
<path d="M99.4833 591L206.983 580L279.983 616L200.483 643L174.483 611.5L99.4833 591Z" stroke="#F0B256" stroke-width="0.5"/>
<path d="M206.983 842L284.483 793.5L200.483 766.5L174.483 809.5L99.4833 835L206.983 842Z" stroke="#F0B256" stroke-width="0.5"/>
<path d="M116.483 675L161.483 696L165.483 725.5L113.483 765.5L127.483 735L58.4833 754.5L89.9833 722L46.9833 712.5L89.9833 700L63.4833 684.5L127.483 696L116.483 675Z" fill="#D2EDBD" stroke="#BAE2B6" stroke-width="0.5"/>
<path d="M548.699 688.837C550.724 675.446 559.726 655.5 559.726 655.5L562.483 657.224C562.483 657.224 554.337 676.702 552.681 689.699C551.23 701.086 551.804 707.63 553.294 719.013C555.088 732.723 562.483 753.5 562.483 753.5H558.195C558.195 753.5 550.417 732.751 548.699 719.013C547.233 707.291 546.93 700.531 548.699 688.837Z" fill="#F49300" stroke="#F49300" stroke-width="0.5"/>
<g filter="url(#filter6_d_30_78)">
<ellipse cx="462.983" cy="700" rx="48.5" ry="46.5" fill="#B9DEDC"/>
<path d="M462.983 658.5C487.208 658.5 506.483 677.277 506.483 700C506.483 722.724 487.208 741.5 462.983 741.5C438.758 741.5 419.483 722.724 419.483 700C419.483 677.277 438.758 658.5 462.983 658.5Z" stroke="#A09A9A" stroke-width="10"/>
</g>
<defs>
<filter id="filter0_d_30_78" x="307.829" y="457.142" width="90.7792" height="55.7399" filterUnits="userSpaceOnUse" color-interpolation-filters="sRGB">
<feFlood flood-opacity="0" result="BackgroundImageFix"/>
<feColorMatrix in="SourceAlpha" type="matrix" values="0 0 0 0 0 0 0 0 0 0 0 0 0 0 0 0 0 0 127 0" result="hardAlpha"/>
<feOffset dy="4"/>
<feGaussianBlur stdDeviation="2"/>
<feComposite in2="hardAlpha" operator="out"/>
<feColorMatrix type="matrix" values="0 0 0 0 0 0 0 0 0 0 0 0 0 0 0 0 0 0 0.25 0"/>
<feBlend mode="normal" in2="BackgroundImageFix" result="effect1_dropShadow_30_78"/>
<feBlend mode="normal" in="SourceGraphic" in2="effect1_dropShadow_30_78" result="shape"/>
</filter>
<filter id="filter1_d_30_78" x="258.983" y="338.5" width="189" height="133" filterUnits="userSpaceOnUse" color-interpolation-filters="sRGB">
<feFlood flood-opacity="0" result="BackgroundImageFix"/>
<feColorMatrix in="SourceAlpha" type="matrix" values="0 0 0 0 0 0 0 0 0 0 0 0 0 0 0 0 0 0 127 0" result="hardAlpha"/>
<feOffset dy="4"/>
<feGaussianBlur stdDeviation="2"/>
<feComposite in2="hardAlpha" operator="out"/>
<feColorMatrix type="matrix" values="0 0 0 0 0 0 0 0 0 0 0 0 0 0 0 0 0 0 0.25 0"/>
<feBlend mode="normal" in2="BackgroundImageFix" result="effect1_dropShadow_30_78"/>
<feBlend mode="normal" in="SourceGraphic" in2="effect1_dropShadow_30_78" result="shape"/>
</filter>
<filter id="filter2_i_30_78" x="241.73" y="47.2501" width="54.5356" height="152.596" filterUnits="userSpaceOnUse" color-interpolation-filters="sRGB">
<feFlood flood-opacity="0" result="BackgroundImageFix"/>
<feBlend mode="normal" in="SourceGraphic" in2="BackgroundImageFix" result="shape"/>
<feColorMatrix in="SourceAlpha" type="matrix" values="0 0 0 0 0 0 0 0 0 0 0 0 0 0 0 0 0 0 127 0" result="hardAlpha"/>
<feOffset dy="4"/>
<feGaussianBlur stdDeviation="2"/>
<feComposite in2="hardAlpha" operator="arithmetic" k2="-1" k3="1"/>
<feColorMatrix type="matrix" values="0 0 0 0 0 0 0 0 0 0 0 0 0 0 0 0 0 0 0.25 0"/>
<feBlend mode="normal" in2="shape" result="effect1_innerShadow_30_78"/>
</filter>
<filter id="filter3_d_30_78" x="240.93" y="309.988" width="226.254" height="55.0917" filterUnits="userSpaceOnUse" color-interpolation-filters="sRGB">
<feFlood flood-opacity="0" result="BackgroundImageFix"/>
<feColorMatrix in="SourceAlpha" type="matrix" values="0 0 0 0 0 0 0 0 0 0 0 0 0 0 0 0 0 0 127 0" result="hardAlpha"/>
<feOffset dy="4"/>
<feGaussianBlur stdDeviation="2"/>
<feComposite in2="hardAlpha" operator="out"/>
<feColorMatrix type="matrix" values="0 0 0 0 0 0 0 0 0 0 0 0 0 0 0 0 0 0 0.25 0"/>
<feBlend mode="normal" in2="BackgroundImageFix" result="effect1_dropShadow_30_78"/>
<feBlend mode="normal" in="SourceGraphic" in2="effect1_dropShadow_30_78" result="shape"/>
</filter>
<filter id="filter4_i_30_78" x="398.709" y="42.2286" width="42.5247" height="157.569" filterUnits="userSpaceOnUse" color-interpolation-filters="sRGB">
<feFlood flood-opacity="0" result="BackgroundImageFix"/>
<feBlend mode="normal" in="SourceGraphic" in2="BackgroundImageFix" result="shape"/>
<feColorMatrix in="SourceAlpha" type="matrix" values="0 0 0 0 0 0 0 0 0 0 0 0 0 0 0 0 0 0 127 0" result="hardAlpha"/>
<feOffset dy="4"/>
<feGaussianBlur stdDeviation="2"/>
<feComposite in2="hardAlpha" operator="arithmetic" k2="-1" k3="1"/>
<feColorMatrix type="matrix" values="0 0 0 0 0 0 0 0 0 0 0 0 0 0 0 0 0 0 0.25 0"/>
<feBlend mode="normal" in2="shape" result="effect1_innerShadow_30_78"/>
</filter>
<filter id="filter5_d_30_78" x="0" y="652.903" width="169.747" height="153.775" filterUnits="userSpaceOnUse" color-interpolation-filters="sRGB">
<feFlood flood-opacity="0" result="BackgroundImageFix"/>
<feColorMatrix in="SourceAlpha" type="matrix" values="0 0 0 0 0 0 0 0 0 0 0 0 0 0 0 0 0 0 127 0" result="hardAlpha"/>
<feOffset dy="4"/>
<feGaussianBlur stdDeviation="2"/>
<feComposite in2="hardAlpha" operator="out"/>
<feColorMatrix type="matrix" values="0 0 0 0 0 0 0 0 0 0 0 0 0 0 0 0 0 0 0.25 0"/>
<feBlend mode="normal" in2="BackgroundImageFix" result="effect1_dropShadow_30_78"/>
<feBlend mode="normal" in="SourceGraphic" in2="effect1_dropShadow_30_78" result="shape"/>
</filter>
<filter id="filter6_d_30_78" x="410.483" y="653.5" width="105" height="101" filterUnits="userSpaceOnUse" color-interpolation-filters="sRGB">
<feFlood flood-opacity="0" result="BackgroundImageFix"/>
<feColorMatrix in="SourceAlpha" type="matrix" values="0 0 0 0 0 0 0 0 0 0 0 0 0 0 0 0 0 0 127 0" result="hardAlpha"/>
<feOffset dy="4"/>
<feGaussianBlur stdDeviation="2"/>
<feComposite in2="hardAlpha" operator="out"/>
<feColorMatrix type="matrix" values="0 0 0 0 0 0 0 0 0 0 0 0 0 0 0 0 0 0 0.25 0"/>
<feBlend mode="normal" in2="BackgroundImageFix" result="effect1_dropShadow_30_78"/>
<feBlend mode="normal" in="SourceGraphic" in2="effect1_dropShadow_30_78" result="shape"/>
</filter>
</defs>
</svg>
