<svg width="1139" height="737" viewBox="0 0 1139 737" fill="none" xmlns="http://www.w3.org/2000/svg">
<path d="M110.904 54.2116C101.827 65.0495 92 84.4365 92 84.4365V567.28C92 567.28 93.6847 601.992 103.171 622.062C109.466 635.381 114.735 642.311 124.653 653.799C134.771 665.518 141.864 671.156 154.299 681.001C171.158 694.35 181.247 701.62 201.13 711.226C224.298 722.419 238.843 726.871 264.717 731.628C301.671 738.421 324.157 737.126 361.388 731.628C391.534 727.176 408.468 722.637 436.146 711.226C464.462 699.552 479.828 690.99 503.171 672.689C519.127 660.18 540.12 637.175 540.12 637.175C540.12 637.175 574.433 667.383 596.404 672.689C618.375 677.995 631.285 679.191 653.977 681.001C682.384 683.268 698.6 683.175 727.016 681.001C750.375 679.214 763.601 677.829 786.307 672.689C810.005 667.325 822.55 662.008 845.169 653.799C861.83 647.752 887.274 637.175 887.274 637.175C887.274 637.175 930.733 675.135 966.759 681.001C984.531 683.895 995.103 682.826 1013.02 681.015L1013.16 681.001C1029.9 679.309 1055.27 672.689 1055.27 672.689L1084.91 653.799L1119.28 616.773C1119.28 616.773 1140.49 569.202 1137.76 537.81C1135.76 514.854 1119.28 481.139 1119.28 481.139C1098.42 447.554 1016.25 426.704 966.759 426.189V416.911C966.759 416.911 955.292 395.548 946.565 382.53C936.144 366.982 931.097 357.42 916.92 344.371C900.549 329.303 888.955 322.009 867.51 313.39C833.826 299.852 773.848 303.189 773.848 303.189V284.299C773.848 284.299 775.428 264.877 773.848 252.563C771.743 236.161 768.611 226.977 761.388 211.759C755.163 198.645 750.372 191.699 741.195 180.023C729.158 164.71 721.211 156.538 705.104 144.509C692.858 135.362 684.679 131.722 671.162 124.107C655.071 115.04 646.802 108.387 629.057 102.194C611.15 95.9436 580.937 92.7484 580.937 92.7484H529.379C511.091 92.7484 500.563 89.9576 482.548 92.7484C468.861 94.8686 448.606 102.194 448.606 102.194L406.501 114.661L395.759 84.4365L373.848 54.2116C373.848 54.2116 353.707 34.9292 338.187 25.4979C319.272 14.004 307.226 8.29619 284.911 3.58484C259.588 -1.76141 243.794 0.202746 218.497 3.34876L216.597 3.58484C193.553 6.44602 179.662 7.66688 159.025 17.1861C136.945 27.3708 125.734 36.5055 110.904 54.2116Z" fill="#7B7ED0" stroke="#FFFCFC" stroke-width="0.5"/>
<ellipse cx="215.5" cy="164" rx="215.5" ry="164" transform="matrix(-1 0 0 1 719 90.25)" fill="#9D9FD5"/>
<ellipse cx="246.637" cy="201.449" rx="246.637" ry="201.449" transform="matrix(-0.999498 0.0316889 0.0353421 0.999375 896.231 255.446)" fill="#9D9FD5"/>
<ellipse cx="140.954" cy="127.166" rx="140.954" ry="127.166" transform="matrix(-0.999498 0.0316889 0.0353421 0.999375 1052.29 409.634)" fill="#9D9FD5"/>
<ellipse cx="219" cy="192.5" rx="219" ry="192.5" transform="matrix(-1 0 0 1 531 321.25)" fill="#9D9FD5"/>
<ellipse cx="162" cy="149" rx="162" ry="149" transform="matrix(-1 0 0 1 417 11.25)" fill="#9D9FD5"/>
<path d="M376.334 337.223L93.946 134.131L95.999 542.849L376.334 337.223Z" fill="#9D9FD5"/>
<g filter="url(#filter0_d_18_7)">
<ellipse cx="56" cy="53.5" rx="56" ry="53.5" transform="matrix(-1 0 0 1 237 149.25)" fill="#3542B7"/>
</g>
<g opacity="0.7" filter="url(#filter1_d_18_7)">
<path d="M769.331 483.089C751.635 518.623 767.976 561.131 805.831 578.032C843.685 594.934 888.718 579.829 906.415 544.294C924.112 508.76 907.77 466.252 869.916 449.351C832.061 432.45 787.028 447.555 769.331 483.089Z" fill="#E65B6C"/>
</g>
<path d="M598.586 322.545C622.301 266.852 757.704 292.094 757.704 292.094L779 289.811L770.964 286.385L762.526 282.959L747.257 278.011L736.006 274.966L717.523 270.399L719.934 254.032L717.523 241.852V229.291L713.906 214.827L706.674 199.983L698.637 185.139H694.619H673.725C673.725 185.139 647.875 183.139 631.535 185.139C610.562 187.704 592.725 197.902 579.701 199.983L546.35 205.312C533.326 207.393 522.107 218.146 508.982 229.291C499.472 237.367 492.092 241.082 486.882 252.129C480.161 266.379 484.971 276.592 486.882 292.094C488.675 306.635 500.426 314.69 495.722 328.635C492.328 338.696 486.443 343.084 477.64 349.569C455.894 365.589 432.486 344.275 407.323 354.898C386.071 363.869 374.676 373.007 361.918 391.438C353.274 403.926 349.538 412.156 346.65 426.836C344.034 440.134 350.351 448.409 346.65 461.473C343.885 471.232 341.4 476.91 334.595 484.691C320.055 501.317 302.401 500.392 279.949 504.103C259.08 507.553 246.55 500.535 225.704 504.103C207.733 507.179 197.386 510.028 181.505 518.567C168.482 525.569 161.055 530.207 151.369 541.024C141.331 552.233 141.256 562.015 132.483 574.138C125.985 583.119 114 595.834 114 595.834L126.858 617.149L138.109 630.852L151.369 644.554L166.236 658.637L178.29 666.25L185.121 658.637C185.121 658.637 226.731 586.833 273.921 570.713C328.202 552.17 367.66 622.352 418.976 597.357C450.248 582.125 472.279 565.57 477.64 532.65C482.826 500.815 442.125 488.234 445.094 456.144C450.821 394.231 577.672 450.347 598.586 391.438C607.64 365.937 587.962 347.496 598.586 322.545Z" fill="#B2B1DE" stroke="#9D9FD5" stroke-width="0.5"/>
<path d="M497.814 121.24C503.629 110.198 515.867 94.6666 515.867 94.6666L519.076 91.25L540.74 92.7685L562.403 96.9443L583.264 102.639L606.933 111.37L624.585 120.101L645.446 131.49L659.487 142.499L671.522 152.749L681.151 163.758L689.575 174.008L698 186.535C698 186.535 683.327 186.764 673.93 186.535C659.49 186.184 651.387 182.833 637.022 184.258C637.022 184.258 620.955 187.107 610.945 189.952C602.164 192.448 588.881 197.544 588.881 197.544L566.816 202.859C566.816 202.859 551.459 203.865 542.344 207.035C526.815 212.435 523.276 224.02 508.646 231.331C505.114 233.096 502.64 233.271 499.419 235.507C496.291 237.677 494.985 239.446 492.599 242.34C489.144 246.529 487.425 249.16 485.378 254.108C483.159 259.469 482.673 262.797 482.168 268.534C481.329 278.063 483.973 283.361 485.378 292.83C487.762 308.904 500.495 319.419 492.599 333.829C490.435 337.777 488.552 339.66 485.378 342.94C481.475 346.971 474.145 352.051 474.145 352.051L463.714 355.088C463.714 355.088 453.658 355.688 447.266 355.088C440.906 354.49 437.586 352.575 431.219 352.051C426.225 351.64 418.382 352.051 418.382 352.051L407.951 355.088L387.491 365.338C387.491 365.338 377.865 370.672 372.648 375.208C361.568 384.841 352.589 406.337 352.589 406.337C352.589 406.337 345.13 421.448 344.967 431.772C344.84 439.767 348.978 451.892 348.978 451.892C348.978 451.892 346.797 463.895 343.362 470.873C338.876 479.984 335.594 485.578 326.914 491.372C319.542 496.293 313.911 496.574 305.25 498.965C294.366 501.969 276.767 504.279 276.767 504.279C276.767 504.279 263.507 505.204 255.104 504.279C250.037 503.722 247.352 502.371 242.266 502.002C233.624 501.373 220.201 504.279 220.201 504.279L195.329 512.251L176.875 520.224L163.235 531.612L152.403 538.825L146.385 548.316L139.565 558.945L133.949 569.575L126.728 579.445L113.489 594.25L109.076 586.278L104.262 574.13L100.25 558.945C100.25 558.945 90.9146 542.318 93.4304 531.612C95.5147 522.742 102.74 520.362 107.07 512.251C113.553 500.109 109.762 490.309 117.501 478.845C125.514 466.974 132.326 459.937 146.385 455.308C158.963 451.167 167.199 454.461 180.485 455.308C197.729 456.408 207.03 463.52 224.213 461.762C253.041 458.812 275.647 449.725 287.198 424.559C295.311 406.881 285.666 394.426 287.198 375.208C289.183 350.296 286.71 334.384 298.832 312.19C328.824 257.275 429.025 325.735 460.505 271.571C473.594 249.05 469.591 232.373 474.145 207.035C476.749 192.545 476.567 184.131 480.162 169.832C482.583 160.203 487.785 145.536 487.785 145.536C487.785 145.536 493.013 130.357 497.814 121.24Z" fill="#DED6F4" fill-opacity="0.78" stroke="#FFFCFC" stroke-width="0.5"/>
<path d="M336.5 624.25L331.224 640.488H314.15L327.963 650.524L322.687 666.762L336.5 656.726L350.313 666.762L345.037 650.524L358.85 640.488H341.776L336.5 624.25Z" fill="#F0EDA5"/>
<path opacity="0.7" d="M190.5 455.25L184.55 473.561H165.297L180.873 484.878L174.924 503.189L190.5 491.872L206.076 503.189L200.127 484.878L215.703 473.561H196.45L190.5 455.25Z" fill="#FBFFFD"/>
<path opacity="0.7" d="M417 153.25L410.04 172.943H387.517L405.739 185.114L398.779 204.807L417 192.636L435.221 204.807L428.261 185.114L446.483 172.943H423.96L417 153.25Z" fill="#F0EDA5"/>
<path opacity="0.7" d="M354.5 257.25L349.224 273.143H332.15L345.963 282.965L340.687 298.857L354.5 289.035L368.313 298.857L363.037 282.965L376.85 273.143H359.776L354.5 257.25Z" fill="#FBFFFD"/>
<path opacity="0.7" d="M957.5 548.25L952.224 564.143H935.15L948.963 573.965L943.687 589.857L957.5 580.035L971.313 589.857L966.037 573.965L979.85 564.143H962.776L957.5 548.25Z" fill="#FBFFFD"/>
<path opacity="0.7" d="M679 594.25L673.612 610.488H656.175L670.281 620.524L664.893 636.762L679 626.726L693.107 636.762L687.719 620.524L701.825 610.488H684.388L679 594.25Z" fill="#FBFFFD"/>
<path opacity="0.7" d="M241 94.25L235.163 111.179L216.273 111.179L231.555 121.642L225.718 138.571L241 128.108L256.282 138.571L250.445 121.642L265.727 111.179L246.837 111.179L241 94.25Z" fill="#F0EDA5"/>
<path opacity="0.7" d="M801 341.25L795.836 356.106H779.126L792.645 365.288L787.481 380.144L801 370.962L814.519 380.144L809.355 365.288L822.874 356.106H806.164L801 341.25Z" fill="#F0EDA5"/>
<path opacity="0.7" d="M892.706 524.189C899.13 522.853 909.728 526.477 909.728 526.477L912.363 526.528L910.655 533.722L908.721 539.566L906.647 543.868L901.402 552.912C901.402 552.912 895.095 548.771 890.427 548.168C880.708 546.911 878.251 558.856 868.487 559.746C856.294 560.858 846.422 557.26 839.953 547.411C835.052 539.948 843.189 531.643 837.017 525.079C832.632 520.414 828.24 518.758 821.653 518.437C811.949 517.964 809.629 528.478 800.079 530.173C790.528 531.869 776.145 523.811 768.423 512.313C764.216 506.051 764.072 503.058 764.072 503.058L766.078 493.943L768.423 486.728L773.604 473.222L779.291 466.914C779.291 466.914 786.654 474.096 788.813 479.276C791.662 486.111 785.338 491.625 789.025 498.091C793.8 506.465 802.657 510.407 812.437 508.212C819.924 506.531 819.816 497.851 827.224 495.881C838.262 492.947 848.337 497.95 853.929 507.426C857.854 514.078 851.257 520.46 855.604 526.873C860.609 534.256 868.072 537.781 877.187 536.203C884.888 534.87 884.82 525.83 892.706 524.189Z" fill="#E67F8C" stroke="#E67F8C" stroke-width="0.5"/>
<path opacity="0.7" d="M887.027 515.897C894.768 514.597 894.709 505.54 902.636 503.932L910.766 499.209L912.282 506.145L913.127 514.462L912.903 523.151L911.351 532.746C911.351 532.746 905.014 528.568 900.323 527.943C890.556 526.64 888.075 538.595 878.26 539.443C866.004 540.502 856.086 536.853 849.594 526.957C844.674 519.459 852.861 511.176 846.664 504.572C842.261 499.88 837.849 498.201 831.228 497.85C821.476 497.332 819.134 507.854 809.533 509.51C799.933 511.165 786.175 503.145 786.239 492.251C786.259 488.929 788.633 487.335 788.464 484.016C788.26 480.022 786.035 478.195 784.152 474.607C782.249 470.979 778.772 465.569 778.772 465.569L787.365 458.852L793.715 454.923L802.904 449.72L801.394 452.828L798.584 458.613L797.355 465.713L798.454 477.32C803.245 485.731 812.144 489.72 821.975 487.565C829.502 485.915 829.402 477.219 836.849 475.28C847.946 472.39 858.067 477.447 863.679 486.965C867.618 493.646 860.98 500.01 865.343 506.453C870.367 513.872 877.865 517.437 887.027 515.897Z" fill="#EF96A1" stroke="#E67F8C" stroke-width="0.5"/>
<path opacity="0.7" d="M142.316 199.439C135.583 193.912 136.649 187.251 135.076 178.943C134.658 176.734 134.237 173.25 134.237 173.25L130.631 178.943C130.631 178.943 127.737 185.997 126.63 190.709C125.601 195.088 125.125 197.61 125.021 202.096C124.896 207.464 125.312 210.538 126.63 215.76C128.198 221.973 129.78 225.362 133.065 230.941C136.073 236.049 137.903 238.996 142.316 243.087C147.168 247.585 150.661 249.445 156.796 252.196C162.317 254.672 165.635 255.911 171.678 256.751C176.962 257.485 181.584 257.344 185.354 256.751L195.007 255.233L204.66 252.196L211.9 248.401L219.14 243.087L223.564 238.532L227.184 233.219L230 229.044V226.387C230 226.387 187.364 251.873 185.354 235.117C184.582 228.682 191.488 225.532 190.18 219.175C187.356 205.447 153.807 233.096 152.372 219.175C151.294 208.717 175.729 209.221 171.678 199.439C167.491 189.327 150.982 206.552 142.316 199.439Z" fill="#616DD6" stroke="#9396DB" stroke-width="0.5"/>
<g opacity="0.7" filter="url(#filter2_d_18_7)">
<ellipse cx="55.5" cy="53" rx="55.5" ry="53" transform="matrix(-1 0 0 1 288 555.25)" fill="#B735AA"/>
</g>
<ellipse opacity="0.7" cx="7" cy="6.5" rx="7" ry="6.5" transform="matrix(-1 0 0 1 246 567.25)" fill="#BC67B4"/>
<ellipse opacity="0.7" cx="4.5" cy="4" rx="4.5" ry="4" transform="matrix(-1 0 0 1 234 654.25)" fill="#BC67B4"/>
<circle opacity="0.7" cx="4.5" cy="4.5" r="4.5" transform="matrix(-1 0 0 1 212 682.25)" fill="#BC67B4"/>
<ellipse cx="4" cy="3.5" rx="4" ry="3.5" transform="matrix(-1 0 0 1 232 638.25)" fill="#BC67B4"/>
<circle opacity="0.7" cx="13.5" cy="13.5" r="13.5" transform="matrix(-1 0 0 1 265 594.25)" fill="#BC67B4"/>
<g filter="url(#filter3_i_18_7)">
<path d="M543.688 228.079L570.496 235.379C570.496 235.379 553.671 238.999 543.688 243.298C532.507 248.115 525.931 251.153 517.146 259.283C502.985 272.39 494.446 283.594 494.713 302.342C494.869 313.29 497.148 319.803 502.955 329.271C508.233 337.876 511.187 342.428 521.251 347.956C531.315 353.484 538.843 353.383 550.478 353.427C565.44 353.483 573.639 349.632 587.665 344.7C597.578 341.215 612.22 333.894 612.22 333.894L603.512 349.949C603.512 349.949 593.37 362.241 585.321 368.649C576.057 376.024 570.382 380.402 558.898 384.097C545.046 388.554 536.1 387.254 521.664 385.969C509.454 384.883 502.248 384.148 491.138 379.542C478.794 374.424 471.832 370.193 463.489 360.39C455.765 351.314 453.542 344.59 450.229 333.378C446.651 321.266 445.419 313.841 446.892 301.234C448.391 288.41 450.861 280.899 457.925 269.642C465.59 257.429 472.183 251.26 484.806 243.298C493.843 237.598 510.042 232.192 510.042 232.192L543.688 228.079Z" fill="#F0EDA5"/>
</g>
<path d="M543.688 228.079L570.496 235.379C570.496 235.379 553.671 238.999 543.688 243.298C532.507 248.115 525.931 251.153 517.146 259.283C502.985 272.39 494.446 283.594 494.713 302.342C494.869 313.29 497.148 319.803 502.955 329.271C508.233 337.876 511.187 342.428 521.251 347.956C531.315 353.484 538.843 353.383 550.478 353.427C565.44 353.483 573.639 349.632 587.665 344.7C597.578 341.215 612.22 333.894 612.22 333.894L603.512 349.949C603.512 349.949 593.37 362.241 585.321 368.649C576.057 376.024 570.382 380.402 558.898 384.097C545.046 388.554 536.1 387.254 521.664 385.969C509.454 384.883 502.248 384.148 491.138 379.542C478.794 374.424 471.832 370.193 463.489 360.39C455.765 351.314 453.542 344.59 450.229 333.378C446.651 321.266 445.419 313.841 446.892 301.234C448.391 288.41 450.861 280.899 457.925 269.642C465.59 257.429 472.183 251.26 484.806 243.298C493.843 237.598 510.042 232.192 510.042 232.192L543.688 228.079Z" stroke="#FFFCFC" stroke-width="0.5"/>
<defs>
<filter id="filter0_d_18_7" x="121" y="149.25" width="120" height="115" filterUnits="userSpaceOnUse" color-interpolation-filters="sRGB">
<feFlood flood-opacity="0" result="BackgroundImageFix"/>
<feColorMatrix in="SourceAlpha" type="matrix" values="0 0 0 0 0 0 0 0 0 0 0 0 0 0 0 0 0 0 127 0" result="hardAlpha"/>
<feOffset dy="4"/>
<feGaussianBlur stdDeviation="2"/>
<feComposite in2="hardAlpha" operator="out"/>
<feColorMatrix type="matrix" values="0 0 0 0 0 0 0 0 0 0 0 0 0 0 0 0 0 0 0.25 0"/>
<feBlend mode="normal" in2="BackgroundImageFix" result="effect1_dropShadow_18_7"/>
<feBlend mode="normal" in="SourceGraphic" in2="effect1_dropShadow_18_7" result="shape"/>
</filter>
<filter id="filter1_d_18_7" x="758.193" y="442.427" width="159.36" height="150.529" filterUnits="userSpaceOnUse" color-interpolation-filters="sRGB">
<feFlood flood-opacity="0" result="BackgroundImageFix"/>
<feColorMatrix in="SourceAlpha" type="matrix" values="0 0 0 0 0 0 0 0 0 0 0 0 0 0 0 0 0 0 127 0" result="hardAlpha"/>
<feOffset dy="4"/>
<feGaussianBlur stdDeviation="2"/>
<feComposite in2="hardAlpha" operator="out"/>
<feColorMatrix type="matrix" values="0 0 0 0 0 0 0 0 0 0 0 0 0 0 0 0 0 0 0.25 0"/>
<feBlend mode="normal" in2="BackgroundImageFix" result="effect1_dropShadow_18_7"/>
<feBlend mode="normal" in="SourceGraphic" in2="effect1_dropShadow_18_7" result="shape"/>
</filter>
<filter id="filter2_d_18_7" x="173" y="555.25" width="119" height="114" filterUnits="userSpaceOnUse" color-interpolation-filters="sRGB">
<feFlood flood-opacity="0" result="BackgroundImageFix"/>
<feColorMatrix in="SourceAlpha" type="matrix" values="0 0 0 0 0 0 0 0 0 0 0 0 0 0 0 0 0 0 127 0" result="hardAlpha"/>
<feOffset dy="4"/>
<feGaussianBlur stdDeviation="2"/>
<feComposite in2="hardAlpha" operator="out"/>
<feColorMatrix type="matrix" values="0 0 0 0 0 0 0 0 0 0 0 0 0 0 0 0 0 0 0.25 0"/>
<feBlend mode="normal" in2="BackgroundImageFix" result="effect1_dropShadow_18_7"/>
<feBlend mode="normal" in="SourceGraphic" in2="effect1_dropShadow_18_7" result="shape"/>
</filter>
<filter id="filter3_i_18_7" x="446.029" y="227.829" width="166.797" height="163.609" filterUnits="userSpaceOnUse" color-interpolation-filters="sRGB">
<feFlood flood-opacity="0" result="BackgroundImageFix"/>
<feBlend mode="normal" in="SourceGraphic" in2="BackgroundImageFix" result="shape"/>
<feColorMatrix in="SourceAlpha" type="matrix" values="0 0 0 0 0 0 0 0 0 0 0 0 0 0 0 0 0 0 127 0" result="hardAlpha"/>
<feOffset dy="4"/>
<feGaussianBlur stdDeviation="2"/>
<feComposite in2="hardAlpha" operator="arithmetic" k2="-1" k3="1"/>
<feColorMatrix type="matrix" values="0 0 0 0 0 0 0 0 0 0 0 0 0 0 0 0 0 0 0.25 0"/>
<feBlend mode="normal" in2="shape" result="effect1_innerShadow_18_7"/>
</filter>
</defs>
</svg>
