<svg width="512" height="512" viewBox="0 0 512 512" fill="none" xmlns="http://www.w3.org/2000/svg">
<rect width="512" height="512" fill="#A8B8DC"/>
<path d="M149.753 60L217.802 265.456H308.098L365.678 60L288.469 96.6419L260.987 60L226.963 96.6419L149.753 60Z" fill="#ADDBA9"/>
<path d="M187.703 160.765C158.542 161.671 145.548 138.775 116.479 136.314C23.6051 128.454 77.0197 297.011 132.357 370.895C167.069 417.24 198.262 453.284 256.733 452.998C314.776 452.715 345.375 416.934 379.786 370.895C436.236 295.371 487.661 120.822 393.018 131.102C361.772 134.495 351.215 163.184 319.876 160.765C290.717 158.515 285.943 152.188 256.733 150.705C224.856 149.086 219.607 159.774 187.703 160.765Z" fill="#F0B256"/>
<g filter="url(#filter0_d_2005_13)">
<path d="M150.164 236L228.06 239.1C228.06 239.1 228.618 243.206 229.097 249.11H287.418C287.883 243.247 288.603 239.1 288.603 239.1H368.975C368.975 239.1 373.123 270.67 364.731 282.22C356.339 293.77 346.149 293.77 346.149 293.77C346.149 293.77 325.168 297.34 310.782 293.77C296.395 290.2 297.365 289.456 292.199 282.22C288.839 277.513 287.501 270.224 287.139 262.97H229.763C229.831 269.833 229.442 276.894 228.06 282.22C226.261 289.15 210.676 293.77 210.676 293.77C210.676 293.77 192.805 295.174 181.496 293.77C170.405 292.394 162.964 291.585 153.729 286.84C138.744 279.14 150.164 236 150.164 236Z" fill="#1E1E1E"/>
<path d="M287.418 249.11L287.058 256.04M290.401 256.04V249.11H228.06V256.04V262.97H290.401L293.398 251.42M150.164 236L228.06 239.1C228.06 239.1 231.909 267.386 228.06 282.22C226.261 289.15 210.676 293.77 210.676 293.77C210.676 293.77 192.805 295.174 181.496 293.77C170.405 292.394 162.964 291.585 153.729 286.84C138.744 279.14 150.164 236 150.164 236ZM288.603 239.1C288.603 239.1 283.288 269.739 292.199 282.22C297.365 289.456 296.395 290.2 310.782 293.77C325.168 297.34 346.149 293.77 346.149 293.77C346.149 293.77 356.339 293.77 364.731 282.22C373.123 270.67 368.975 239.1 368.975 239.1H288.603Z" stroke="#1E1E1E"/>
</g>
<defs>
<filter id="filter0_d_2005_13" x="141.5" y="235.484" width="233" height="68.3725" filterUnits="userSpaceOnUse" color-interpolation-filters="sRGB">
<feFlood flood-opacity="0" result="BackgroundImageFix"/>
<feColorMatrix in="SourceAlpha" type="matrix" values="0 0 0 0 0 0 0 0 0 0 0 0 0 0 0 0 0 0 127 0" result="hardAlpha"/>
<feOffset dy="4"/>
<feGaussianBlur stdDeviation="2"/>
<feComposite in2="hardAlpha" operator="out"/>
<feColorMatrix type="matrix" values="0 0 0 0 0 0 0 0 0 0 0 0 0 0 0 0 0 0 0.25 0"/>
<feBlend mode="normal" in2="BackgroundImageFix" result="effect1_dropShadow_2005_13"/>
<feBlend mode="normal" in="SourceGraphic" in2="effect1_dropShadow_2005_13" result="shape"/>
</filter>
</defs>
</svg>
