<svg width="347" height="460" viewBox="0 0 347 460" fill="none" xmlns="http://www.w3.org/2000/svg">
<ellipse cx="173" cy="315.5" rx="158" ry="136" fill="#E4D7EC"/>
<path d="M69 303C106.805 303 137.5 335.432 137.5 375.5C137.5 415.568 106.805 448 69 448C31.1947 448 0.5 415.568 0.5 375.5C0.5 335.432 31.1947 303 69 303Z" fill="#E4D7EC" stroke="#E4D7EC"/>
<path d="M60.1714 134.254C67.9991 165.999 92.8526 211.334 92.8526 211.334L107.419 212.805C107.419 212.805 116.067 160.341 116.142 126.444C116.209 95.7746 109.329 48.2065 109.329 48.2065L105.163 25.7059C105.163 25.7059 102.288 13.1875 96.309 8.65552C89.0469 3.1514 81.7437 3.44524 73.0937 6.31077C64.9184 9.01906 56.4568 20.7865 56.4568 20.7865C56.4568 20.7865 54.3238 41.9056 52.957 55.4378C51.5903 68.97 52.7716 104.245 60.1714 134.254Z" fill="#E4D7EC"/>
<path d="M60.1714 134.254C67.9991 165.999 92.8526 211.334 92.8526 211.334L107.419 212.805C107.419 212.805 116.067 160.341 116.142 126.444C116.209 95.7746 109.329 48.2065 109.329 48.2065L105.163 25.7059C105.163 25.7059 102.288 13.1875 96.309 8.65552C89.0469 3.1514 81.7437 3.44524 73.0937 6.31077C64.9184 9.01906 56.4568 20.7865 56.4568 20.7865C56.4568 20.7865 54.3238 41.9056 52.957 55.4378C51.5903 68.97 52.7716 104.245 60.1714 134.254Z" fill="#E4D7EC"/>
<path d="M60.1714 134.254C67.9991 165.999 92.8526 211.334 92.8526 211.334L107.419 212.805C107.419 212.805 116.067 160.341 116.142 126.444C116.209 95.7746 109.329 48.2065 109.329 48.2065L105.163 25.7059C105.163 25.7059 102.288 13.1875 96.309 8.65552C89.0469 3.1514 81.7437 3.44524 73.0937 6.31077C64.9184 9.01906 56.4568 20.7865 56.4568 20.7865C56.4568 20.7865 54.3238 41.9056 52.957 55.4378C51.5903 68.97 52.7716 104.245 60.1714 134.254Z" fill="#E4D7EC"/>
<path d="M60.1714 134.254C67.9991 165.999 92.8526 211.334 92.8526 211.334L107.419 212.805C107.419 212.805 116.067 160.341 116.142 126.444C116.209 95.7746 109.329 48.2065 109.329 48.2065L105.163 25.7059C105.163 25.7059 102.288 13.1875 96.309 8.65552C89.0469 3.1514 81.7437 3.44524 73.0937 6.31077C64.9184 9.01906 56.4568 20.7865 56.4568 20.7865C56.4568 20.7865 54.3238 41.9056 52.957 55.4378C51.5903 68.97 52.7716 104.245 60.1714 134.254Z" fill="#E4D7EC"/>
<path d="M60.1714 134.254C67.9991 165.999 92.8526 211.334 92.8526 211.334L107.419 212.805C107.419 212.805 116.067 160.341 116.142 126.444C116.209 95.7746 109.329 48.2065 109.329 48.2065L105.163 25.7059C105.163 25.7059 102.288 13.1875 96.309 8.65552C89.0469 3.1514 81.7437 3.44524 73.0937 6.31077C64.9184 9.01906 56.4568 20.7865 56.4568 20.7865C56.4568 20.7865 54.3238 41.9056 52.957 55.4378C51.5903 68.97 52.7716 104.245 60.1714 134.254Z" stroke="#E4D7EC"/>
<path d="M60.1714 134.254C67.9991 165.999 92.8526 211.334 92.8526 211.334L107.419 212.805C107.419 212.805 116.067 160.341 116.142 126.444C116.209 95.7746 109.329 48.2065 109.329 48.2065L105.163 25.7059C105.163 25.7059 102.288 13.1875 96.309 8.65552C89.0469 3.1514 81.7437 3.44524 73.0937 6.31077C64.9184 9.01906 56.4568 20.7865 56.4568 20.7865C56.4568 20.7865 54.3238 41.9056 52.957 55.4378C51.5903 68.97 52.7716 104.245 60.1714 134.254Z" stroke="#E4D7EC"/>
<path d="M60.1714 134.254C67.9991 165.999 92.8526 211.334 92.8526 211.334L107.419 212.805C107.419 212.805 116.067 160.341 116.142 126.444C116.209 95.7746 109.329 48.2065 109.329 48.2065L105.163 25.7059C105.163 25.7059 102.288 13.1875 96.309 8.65552C89.0469 3.1514 81.7437 3.44524 73.0937 6.31077C64.9184 9.01906 56.4568 20.7865 56.4568 20.7865C56.4568 20.7865 54.3238 41.9056 52.957 55.4378C51.5903 68.97 52.7716 104.245 60.1714 134.254Z" stroke="#E4D7EC"/>
<path d="M60.1714 134.254C67.9991 165.999 92.8526 211.334 92.8526 211.334L107.419 212.805C107.419 212.805 116.067 160.341 116.142 126.444C116.209 95.7746 109.329 48.2065 109.329 48.2065L105.163 25.7059C105.163 25.7059 102.288 13.1875 96.309 8.65552C89.0469 3.1514 81.7437 3.44524 73.0937 6.31077C64.9184 9.01906 56.4568 20.7865 56.4568 20.7865C56.4568 20.7865 54.3238 41.9056 52.957 55.4378C51.5903 68.97 52.7716 104.245 60.1714 134.254Z" stroke="#E4D7EC"/>
<path d="M272.688 130.259C262.742 163.69 245.366 185.086 231.912 212.5H220.791V121.41C220.791 121.41 216.762 77.1534 220.791 49.0589C222.491 37.2001 222.228 30.2587 226.969 18.8691C229.946 11.7185 236.854 1.17165 236.854 1.17165C236.854 1.17165 247.465 -0.339431 253.741 1.17165C265.023 3.88776 266.938 10.1905 272.688 18.8691C281.131 31.6123 281.144 42.4305 282.985 57.9076C286.352 86.2102 280.94 102.52 272.688 130.259Z" fill="#E4D7EC" stroke="#E4D7EC"/>
<ellipse cx="174" cy="373.5" rx="19" ry="8" fill="#DEA3A3"/>
<ellipse cx="278" cy="376.5" rx="69" ry="73" fill="#E4D7EC"/>
<ellipse cx="174.5" cy="397" rx="90.5" ry="62.5" fill="#F7F3FA"/>
<ellipse cx="177" cy="375.5" rx="19" ry="8" fill="#F7DBDB"/>
<path d="M169.388 389.5C168.515 386.5 169.388 381.5 169.388 381.5H183.888C183.888 381.5 184.761 386.5 183.888 389.5C183.13 392.105 182.71 394.098 180.388 395.5C177.881 397.014 175.395 397.014 172.888 395.5C170.566 394.098 170.146 392.105 169.388 389.5Z" fill="#F7DBDB" stroke="#F7DBDB"/>
<g filter="url(#filter0_d_19_76)">
<path d="M70.5 306.5L146.327 308.929C146.327 308.929 146.871 312.145 147.337 316.77H204.109C204.562 312.177 205.262 308.929 205.262 308.929H283.5C283.5 308.929 287.538 333.658 279.369 342.706C271.2 351.753 274.117 349.944 261.28 351.753C248.443 353.563 240.857 354.55 226.852 351.753C212.848 348.957 213.792 348.374 208.763 342.706C205.492 339.019 204.19 333.309 203.837 327.627H147.985C148.052 333.003 147.672 338.534 146.327 342.706C144.576 348.134 140.322 350.864 129.405 351.753C118.488 352.643 118.584 353.05 101 351.753C83.4158 350.457 82.9597 350.042 73.9707 346.325C59.3828 340.293 70.5 306.5 70.5 306.5Z" fill="#1E1E1E"/>
<path d="M204.109 316.77L203.758 322.198M207.013 322.198V316.77H146.327V322.198V327.627H207.013L209.93 318.579M70.5 306.5L146.327 308.929C146.327 308.929 150.074 331.086 146.327 342.706C144.576 348.134 140.322 350.864 129.405 351.753C118.488 352.643 118.584 353.05 101 351.753C83.4158 350.457 82.9597 350.042 73.9707 346.325C59.3828 340.293 70.5 306.5 70.5 306.5ZM205.262 308.929C205.262 308.929 200.089 332.929 208.763 342.706C213.792 348.374 212.848 348.957 226.852 351.753C240.857 354.55 248.443 353.563 261.28 351.753C274.117 349.944 271.2 351.753 279.369 342.706C287.538 333.658 283.5 308.929 283.5 308.929H205.262Z" stroke="#1E1E1E"/>
</g>
<g filter="url(#filter1_i_19_76)">
<path d="M232 140L226 189.5L238 192.5L244.5 174.5L257 140L268 86.0001V57.5001L264 45.0001L250.5 39.5001L238 45.0001L232 57.5001V90.5001V140Z" fill="#F8C3C3"/>
</g>
<path d="M232 140L226 189.5L238 192.5L244.5 174.5L257 140L268 86.0001V57.5001L264 45.0001L250.5 39.5001L238 45.0001L232 57.5001V90.5001V140Z" stroke="#D9D9D9" stroke-width="0.5"/>
<g filter="url(#filter2_i_19_76)">
<path d="M85.9411 166.722L101.364 198.123L108.244 194.685L104.669 165.4L102.402 138.083L102.944 107.837L101.221 80.1158L96.9576 57.6477L91.8601 48.4097L79.9209 47.2038L70.8672 52.2579L66.9569 66.0955L67.5163 85.4348L69.8746 111.842L75.9372 141.379L85.9411 166.722Z" fill="#F8C3C3"/>
</g>
<path d="M85.9411 166.722L101.364 198.123L108.244 194.685L104.669 165.4L102.402 138.083L102.944 107.837L101.221 80.1158L96.9576 57.6477L91.8601 48.4097L79.9209 47.2038L70.8672 52.2579L66.9569 66.0955L67.5163 85.4348L69.8746 111.842L75.9372 141.379L85.9411 166.722Z" stroke="#F7DBDB" stroke-width="0.5"/>
<defs>
<filter id="filter0_d_19_76" x="61.9465" y="305.988" width="227.052" height="56.0117" filterUnits="userSpaceOnUse" color-interpolation-filters="sRGB">
<feFlood flood-opacity="0" result="BackgroundImageFix"/>
<feColorMatrix in="SourceAlpha" type="matrix" values="0 0 0 0 0 0 0 0 0 0 0 0 0 0 0 0 0 0 127 0" result="hardAlpha"/>
<feOffset dy="4"/>
<feGaussianBlur stdDeviation="2"/>
<feComposite in2="hardAlpha" operator="out"/>
<feColorMatrix type="matrix" values="0 0 0 0 0 0 0 0 0 0 0 0 0 0 0 0 0 0 0.25 0"/>
<feBlend mode="normal" in2="BackgroundImageFix" result="effect1_dropShadow_19_76"/>
<feBlend mode="normal" in="SourceGraphic" in2="effect1_dropShadow_19_76" result="shape"/>
</filter>
<filter id="filter1_i_19_76" x="225.725" y="39.2286" width="42.5249" height="157.569" filterUnits="userSpaceOnUse" color-interpolation-filters="sRGB">
<feFlood flood-opacity="0" result="BackgroundImageFix"/>
<feBlend mode="normal" in="SourceGraphic" in2="BackgroundImageFix" result="shape"/>
<feColorMatrix in="SourceAlpha" type="matrix" values="0 0 0 0 0 0 0 0 0 0 0 0 0 0 0 0 0 0 127 0" result="hardAlpha"/>
<feOffset dy="4"/>
<feGaussianBlur stdDeviation="2"/>
<feComposite in2="hardAlpha" operator="arithmetic" k2="-1" k3="1"/>
<feColorMatrix type="matrix" values="0 0 0 0 0 0 0 0 0 0 0 0 0 0 0 0 0 0 0.25 0"/>
<feBlend mode="normal" in2="shape" result="effect1_innerShadow_19_76"/>
</filter>
<filter id="filter2_i_19_76" x="66.7058" y="46.9472" width="41.8079" height="155.511" filterUnits="userSpaceOnUse" color-interpolation-filters="sRGB">
<feFlood flood-opacity="0" result="BackgroundImageFix"/>
<feBlend mode="normal" in="SourceGraphic" in2="BackgroundImageFix" result="shape"/>
<feColorMatrix in="SourceAlpha" type="matrix" values="0 0 0 0 0 0 0 0 0 0 0 0 0 0 0 0 0 0 127 0" result="hardAlpha"/>
<feOffset dy="4"/>
<feGaussianBlur stdDeviation="2"/>
<feComposite in2="hardAlpha" operator="arithmetic" k2="-1" k3="1"/>
<feColorMatrix type="matrix" values="0 0 0 0 0 0 0 0 0 0 0 0 0 0 0 0 0 0 0.25 0"/>
<feBlend mode="normal" in2="shape" result="effect1_innerShadow_19_76"/>
</filter>
</defs>
</svg>
